<svg id="Capa_1" xmlns="http://www.w3.org/2000/svg" viewBox="0 0 430.117 430.118"><path id="RSS" d="M97.493 332.473c10.419 10.408 16.755 24.525 16.794 40.244-.04 15.687-6.375 29.809-16.755 40.17l-.04.019c-10.398 10.352-24.603 16.681-40.398 16.681-15.775 0-29.944-6.348-40.34-16.699C6.384 402.526 0 388.422 0 372.717c0-15.719 6.384-29.869 16.754-40.253v.009c10.401-10.36 24.57-16.735 40.34-16.735 15.796 0 29.987 6.393 40.399 16.735zm0-.009v.009h.019l-.019-.009zm-80.739 80.442v-.019h-.019l.019.019zM.046 146.259v82.129c53.618.033 104.328 21.096 142.278 59.104 37.943 37.888 58.917 88.675 59.003 142.477h.028v.149h82.467c-.065-78.233-31.866-149.099-83.279-200.549-51.421-51.443-122.258-83.261-200.497-83.31zM.196 0v82.089c191.661.14 347.464 156.184 347.594 348.028h82.327c-.056-118.571-48.248-225.994-126.132-303.932C226.073 48.274 118.721.051.196 0z"/></svg>